<svg xmlns="http://www.w3.org/2000/svg" xmlns:ev="http://www.w3.org/2001/xml-events" xmlns:xlink="http://www.w3.org/1999/xlink" width="604.037" height="340.72" class="st24" color-interpolation-filters="sRGB" viewBox="0 0 453.028 255.54" xml:space="preserve"><style type="text/css">.st1{fill:#fff;stroke:#000;stroke-linecap:round;stroke-linejoin:round;stroke-width:.75}.st2{fill:#50e6ff}.st2,.st3,.st4,.st5,.st6,.st7{stroke:none;stroke-linecap:butt;stroke-width:.75}.st3{fill:#fff}.st4{fill:url(#grad0-17)}.st5{fill:#53b1e0}.st6{fill:#9cebff}.st7{fill:url(#grad0-25)}.st8{fill:#000;font-family:Calibri;font-size:.75em}.st9{font-size:1em}.st10{fill:#0078d7;stroke:none;stroke-linecap:butt;stroke-width:.653846}.st11{fill:#0078d7;font-family:Segoe UI;font-size:.75em}.st12{fill:#fff;stroke:#fff;stroke-linecap:butt;stroke-width:1.5}.st13,.st14{stroke-width:.75}.st13{fill:#0078d7;stroke:none;stroke-linecap:butt}.st14{marker-end:url(#mrkr2-89);stroke:#000;stroke-linecap:round;stroke-linejoin:round}.st15{fill:#000;fill-opacity:1;stroke:#000;stroke-opacity:1;stroke-width:.22935779816514}.st16{fill:#fff;stroke:none;stroke-linecap:butt;stroke-width:7.2}.st17{fill:#000;font-family:Calibri;font-size:.666664em}.st18{fill:#0078d7;stroke:none;stroke-linecap:butt;stroke-width:3.4753}.st19{fill:#fff}.st19,.st20,.st21,.st22,.st23{stroke:none;stroke-linecap:butt}.st20{fill:url(#grad0-108)}.st20,.st21,.st22,.st23{stroke-width:.75}.st21{fill:#003067}.st22{fill:url(#grad0-118)}.st23{fill:#005ba1}.st24{fill:none;fill-rule:evenodd;font-size:12px;overflow:visible;stroke-linecap:square;stroke-miterlimit:3}</style><defs id="Patterns_And_Gradients"><linearGradient id="grad0-17" x1="0" x2="1" y1="0" y2="0" gradientTransform="rotate(-133.54829310906 0.5 0.5)"><stop offset="0" stop-color="#1988d9" stop-opacity="1"/><stop offset=".9" stop-color="#54aef0" stop-opacity="1"/></linearGradient><linearGradient id="grad0-25" x1="0" x2="1" y1="0" y2="0" gradientTransform="rotate(65.834982258294 0.5 0.5)"><stop offset=".1" stop-color="#54aef0" stop-opacity="1"/><stop offset=".29" stop-color="#4fabee" stop-opacity="1"/><stop offset=".51" stop-color="#41a2e9" stop-opacity="1"/><stop offset=".74" stop-color="#2a93e0" stop-opacity="1"/><stop offset=".88" stop-color="#1988d9" stop-opacity="1"/></linearGradient><linearGradient id="grad0-108" x1="0" x2="1" y1="0" y2="0" gradientTransform="rotate(90 0.5 0.5)"><stop offset="0" stop-color="#b3b2b3" stop-opacity="1"/><stop offset=".375" stop-color="#afaeaf" stop-opacity="1"/><stop offset=".765" stop-color="#a2a2a2" stop-opacity="1"/><stop offset="1" stop-color="#979797" stop-opacity="1"/></linearGradient><linearGradient id="grad0-118" x1="0" x2="1" y1="0" y2="0" gradientTransform="rotate(-90 0.5 0.5)"><stop offset="0" stop-color="#0078d4" stop-opacity="1"/><stop offset=".155" stop-color="#1380da" stop-opacity="1"/><stop offset=".53" stop-color="#3c91e5" stop-opacity="1"/><stop offset=".82" stop-color="#559cec" stop-opacity="1"/><stop offset="1" stop-color="#5ea0ef" stop-opacity="1"/></linearGradient></defs><defs id="Markers"><g id="lend2"><path style="stroke:none" d="M 1 1 L 0 0 L 1 -1 L 1 1"/></g><marker id="mrkr2-89" class="st15" markerUnits="strokeWidth" orient="auto" overflow="visible" refX="0"><use transform="scale(-4.36,-4.36)" xlink:href="#lend2"/></marker></defs><g><title>Page-1</title><g id="group50-1" transform="translate(44.28,-48.8083)"><title>Boundary.50</title><g id="shape51-2"><title>Sheet.51</title><rect width="144" height="177.63" x="0" y="77.91" class="st1" rx="9" ry="9"/></g></g><g id="group47-4" transform="translate(276.12,-48.8083)"><title>Boundary</title><g id="shape48-5"><title>Sheet.48</title><rect width="144" height="177.63" x="0" y="77.91" class="st1" rx="9" ry="9"/></g></g><g id="group1-7" transform="translate(332.28,-174.808)"><title>Azure Active Directory</title><desc>Azure Active Directory</desc><g id="shape2-8"><title>Sheet.2</title><path d="M1.78 240.77 L15.72 251.62 L29.9 240.73 L31.68 243.22 L15.72 255.54 L0 243.22 L1.78 240.77 Z" class="st2"/></g><g id="shape3-10" transform="translate(2.8336,-6.18198)"><title>Sheet.3</title><path d="M0 245.56 L12.88 227.16 L26.03 245.58 L12.88 255.54 L0 245.56 Z" class="st3"/></g><g id="shape4-12" transform="translate(2.8336,-6.18198)"><title>Sheet.4</title><path d="M12.88 227.16 L12.88 255.54 L0 245.56 L12.88 227.16 Z" class="st2"/></g><g id="shape5-14" transform="translate(15.7168,-6.18198)"><title>Sheet.5</title><path d="M0 227.16 L0 255.54 L13.15 245.58 L0 227.16 Z" class="st4"/></g><g id="shape6-18" transform="translate(15.7168,-6.18198)"><title>Sheet.6</title><path d="M0 241.83 L13.15 245.58 L0 255.54 L0 241.83 Z" class="st5"/></g><g id="shape7-20" transform="translate(2.8336,-6.18198)"><title>Sheet.7</title><path d="M12.88 255.54 L0 245.56 L12.88 241.83 L12.88 255.54 Z" class="st6"/></g><g id="shape8-22" transform="translate(15.7168,1.7053E-13)"><title>Sheet.8</title><path d="M0 255.54 L15.96 243.22 L14.19 240.73 L0 251.62 L0 255.54 Z" class="st7"/></g><g id="shape1-26"><text x="-7.05" y="263.64" class="st8">Azure Active <tspan x="-1.16" class="st9" dy="1.2em">Directory</tspan></text></g></g><g id="group9-29" transform="translate(392.186,-39.6036)"><title>Microsoft Azure</title><desc>Microsoft Azure</desc><g id="shape10-30" transform="translate(-2.07834E-13,-6.33181)"><title>Sheet.10</title><path d="M25.11 250.13 C24 250.13 23.08 250.79 22.64 251.75 L6.92 251.75 C4.27 251.75 2.1 249.61 2.1 246.93 C2.1 244.28 4.23 242.1 6.92 242.1 L6.96 242.1 L6.99 242.1 L9.17 242.1 C9.28 241.55 9.42 241 9.64 240.52 C9.72 240.34 9.83 240.15 9.94 239.97 C11.04 238.05 13.11 236.77 15.5 236.77 C17.6 236.77 19.47 237.8 20.65 239.38 C21.31 239.08 22.01 238.83 22.75 238.68 C21.24 236.25 18.55 234.67 15.5 234.67 C11.93 234.67 8.84 236.88 7.58 240.01 C7.58 240.01 7.58 240.04 7.58 240.04 C7.58 240.04 7.58 240.01 7.58 240.01 L6.96 240.01 C3.13 240.01 0 243.1 0 246.96 C0 250.83 3.09 253.92 6.96 253.92 L22.68 253.92 C23.08 254.88 24.04 255.54 25.14 255.54 C26.62 255.54 27.83 254.36 27.83 252.85 C27.83 251.34 26.58 250.13 25.11 250.13 Z" class="st10"/></g><g id="shape11-32" transform="translate(9.01914,1.42109E-13)"><title>Sheet.11</title><path d="M24.7 238.5 C23.12 235.33 19.84 233.12 16.09 233.12 C11.49 233.12 7.66 236.32 6.7 240.63 C4.45 240.85 2.54 242.03 1.29 243.8 L12.74 243.8 C13.51 242.8 14.73 242.18 16.09 242.18 C18.44 242.18 20.36 244.09 20.36 246.45 C20.36 248.8 18.44 250.72 16.09 250.72 C14.73 250.72 13.55 250.09 12.74 249.1 L0 249.1 C0.52 252.74 3.64 255.54 7.4 255.54 C7.4 255.54 7.44 255.54 7.44 255.54 L24.59 255.54 C24.59 255.54 24.63 255.54 24.63 255.54 C29.34 255.54 33.17 251.71 33.17 247 C33.17 242.32 29.38 238.53 24.7 238.5 Z" class="st10"/></g><g id="shape9-34"><text x="2.2" y="263.64" class="st11">Microsoft<tspan x="8.46" class="st9" dy="1.2em"> </tspan>Azure</text></g></g><g id="group12-37" transform="translate(100.262,-123.439)"><title>Web App (opaque) (was websites)</title><desc>Web App</desc><g id="shape13-38"><title>Sheet.13</title><path d="M27.28 232.73 C24.49 229.08 20.27 227.17 16.01 227.17 C13.01 227.17 9.96 228.13 7.39 230.09 C1.18 234.86 -0 243.76 4.76 249.98 C7.55 253.63 11.77 255.54 16.03 255.54 C19.04 255.54 22.07 254.59 24.64 252.62 C30.86 247.86 32.04 238.95 27.28 232.73 Z" class="st12"/></g><g id="group14-40"><title>Sheet.14</title><g id="group15-41"><title>Sheet.15</title><g id="shape16-42"><title>Sheet.16</title><path d="M23.51 251.15 C21.28 252.86 18.64 253.7 16.03 253.7 C12.31 253.7 8.65 252.03 6.22 248.86 C2.08 243.44 3.1 235.71 8.52 231.56 C10.76 229.84 13.39 229.02 16.01 229.02 C19.72 229.02 23.39 230.69 25.82 233.86 C29.96 239.27 28.93 247.01 23.51 251.15 ZM27.28 232.73 C24.49 229.08 20.27 227.17 16.01 227.17 C13.01 227.17 9.96 228.12 7.39 230.09 C1.18 234.86 0 243.76 4.76 249.98 C7.55 253.63 11.77 255.54 16.03 255.54 C19.04 255.54 22.07 254.59 24.64 252.62 C30.86 247.86 32.04 238.95 27.28 232.73 Z" class="st13"/></g></g><g id="group17-44" transform="translate(5.09156,-4.39894)"><title>Sheet.17</title><g id="group18-45" transform="translate(0.351188,-0.176625)"><title>Sheet.18</title><g id="group19-46" transform="translate(0.44925,3.12639E-13)"><title>Sheet.19</title><g id="shape20-47"><title>Sheet.20</title><path d="M3.72 248.51 C2.9 247.7 2.24 246.92 1.71 246.16 C0.52 248.58 0.1 251.06 0 253.05 C0.12 253.2 0.12 253.33 0.23 253.49 C0.83 254.24 1.57 254.96 2.29 255.54 C2.18 253.92 2.34 251.26 3.72 248.51 Z" class="st13"/></g></g><g id="shape21-49" transform="translate(3.3825,-8.98425)"><title>Sheet.21</title><path d="M5.07 248.04 C3.96 248.81 2.81 249.79 1.66 251.02 C1.02 251.69 0.48 252.38 0 253.07 C0.49 253.87 1.14 254.69 1.95 255.54 C2.56 254.68 3.31 253.82 4.21 252.97 C5.35 251.91 6.42 251.05 7.43 250.37 C6.6 249.6 5.81 248.83 5.07 248.04 Z" class="st13"/></g><g id="group22-51" transform="translate(10.2079,-15.2081)"><title>Sheet.22</title><g id="shape23-52"><title>Sheet.23</title><path d="M10.04 253.46 C9.5 252.78 8.9 252.18 8.26 251.64 C6.35 251.35 3.39 251.38 0 253.18 C0.78 254.02 1.55 254.8 2.3 255.54 C6.82 253.1 10.04 253.46 10.04 253.46 Z" class="st13"/></g></g><g id="group24-54" transform="translate(-2.22322E-14,-9.38775)"><title>Sheet.24</title><g id="shape25-55"><title>Sheet.25</title><path d="M2.16 255.54 C2.5 254.85 2.91 254.16 3.38 253.47 C1.44 250.4 1.53 247.86 1.74 246.68 C1.26 247.19 0.8 247.71 0.41 248.28 C0.02 249.89 0 252.45 2.16 255.54 Z" class="st13"/></g></g><g id="group26-57" transform="translate(4.16269,-0.740812)"><title>Sheet.26</title><g id="shape27-58"><title>Sheet.27</title><path d="M3.51 249.43 C2.6 248.71 1.83 247.99 1.17 247.29 C0.7 247.95 0.32 248.6 0 249.24 C0.62 249.87 1.33 250.5 2.14 251.15 C7.2 255.16 12.23 255.54 15.05 255.54 C15.24 255.54 16.12 254.34 16.63 253.6 C15.37 253.86 9.97 254.54 3.51 249.43 Z" class="st13"/></g></g><g id="group28-60" transform="translate(2.16112,-7.03612)"><title>Sheet.28</title><g id="shape29-61"><title>Sheet.29</title><path d="M0 253.19 C0.53 253.95 1.18 254.73 2 255.54 C2.32 254.9 2.71 254.24 3.17 253.59 C2.36 252.74 1.72 251.92 1.22 251.12 C0.74 251.81 0.34 252.5 0 253.19 Z" class="st13"/></g></g><g id="group30-63" transform="translate(10.8083,-5.32762)"><title>Sheet.30</title><g id="shape31-64"><title>Sheet.31</title><path d="M0 246.71 C4.61 250.97 10.07 254.59 11.46 255.54 C11.6 255.19 11.69 254.84 11.79 254.49 C10.3 253.38 6.39 250.33 1.7 245.66 C1.16 245.95 0.59 246.31 0 246.71 Z" class="st13"/></g></g><g id="group32-66" transform="translate(5.12419,-16.4848)"><title>Sheet.32</title><g id="shape33-67"><title>Sheet.33</title><path d="M5.08 254.45 C3.95 253.27 2.81 252.01 1.63 250.65 C1.07 250.83 0.53 251.05 0 251.31 C0.86 252.73 2.03 254.15 3.33 255.54 C3.93 255.12 4.5 254.76 5.08 254.45 Z" class="st13"/></g></g><g id="shape34-69" transform="translate(8.361,-14.0617)"><title>Sheet.34</title><path d="M1.92 251.99 C1.34 252.3 0.59 252.76 0 253.18 C0.74 253.97 1.49 254.78 2.31 255.54 C2.9 255.14 3.69 254.65 4.23 254.35 C3.48 253.62 2.7 252.83 1.92 251.99 Z" class="st13"/></g><g id="shape35-71" transform="translate(8.36025,-14.0152)"><title>Sheet.35</title><path d="M1.71 251.84 C1.13 252.15 0.59 252.55 0 252.97 C0.74 253.75 1.79 254.78 2.61 255.54 C3.2 255.14 3.69 254.73 4.23 254.43 C3.48 253.7 2.49 252.68 1.71 251.84 Z" class="st13"/></g></g><g id="group36-73" transform="translate(15.2696,-6.24169)"><title>Sheet.36</title><g id="shape37-74"><title>Sheet.37</title><path d="M1.38 250.45 C0.23 251.34 -0 253 0.89 254.16 C1.78 255.33 3.45 255.54 4.61 254.66 C5.77 253.77 5.99 252.11 5.11 250.94 C4.21 249.79 2.55 249.55 1.38 250.45 Z" class="st13"/></g></g><g id="group38-76" transform="translate(9.9159,-2.27374E-13)"><title>Sheet.38</title><g id="shape39-77"><title>Sheet.39</title><path d="M1.27 250.83 C0.2 251.65 0 253.2 0.81 254.27 C1.64 255.34 3.18 255.54 4.26 254.72 C5.33 253.9 5.53 252.36 4.71 251.29 C3.89 250.21 2.35 250.01 1.27 250.83 Z" class="st13"/></g></g><g id="group40-79" transform="translate(0,-5.36869)"><title>Sheet.40</title><g id="shape41-80"><title>Sheet.41</title><path d="M1.94 248.37 C0.31 249.63 0 251.96 1.25 253.59 C2.5 255.23 4.85 255.54 6.48 254.28 C8.11 253.04 8.42 250.7 7.17 249.05 C5.92 247.44 3.57 247.12 1.94 248.37 Z" class="st13"/></g></g></g></g><g id="shape12-82"><text x="-2.61" y="263.64" class="st11">Web App</text></g></g><g id="shape43-84" transform="translate(131.468,-137.623)"><title>Dynamic connector</title><desc>① Acquire token client credential (app password)</desc><path d="M0 255.54 C14.33 255.54 14.33 201.08 200.81 201.08" class="st14"/><rect width="57.984" height="28.8" x="65.195" y="194.917" class="st16"/><text x="65.2" y="202.12" class="st17">① Acquire token<tspan x="67.96" class="st9" dy="1.2em">client credential</tspan><tspan x="69.13" class="st9" dy="1.2em">(app password)</tspan></text></g><g id="shape44-94" transform="translate(336.199,-107.548)"><title>API App</title><desc>VC Request API</desc><path d="M22.69 229.02 L1.15 229.02 C0.51 229.02 0 229.53 0 230.17 L0 247.57 C-0 248.21 0.51 248.72 1.15 248.72 L6.69 248.72 C7.14 250.12 8.48 251.08 10.07 251.08 C11.98 251.08 13.58 249.48 13.58 247.57 C13.58 245.66 11.98 244.07 10.07 244.07 C8.48 244.07 7.14 245.02 6.69 246.42 L2.29 246.42 L2.29 233.99 L21.55 233.99 L21.55 246.42 L17.91 246.42 C17.4 242.6 14.03 239.6 10.07 239.6 C8.73 239.6 7.4 239.99 6.25 240.56 L7.33 242.6 C8.1 242.15 9.12 241.9 10.01 241.9 C13.07 241.9 15.68 244.45 15.68 247.57 C15.68 250.7 13.13 253.25 10.01 253.25 C9.05 253.25 8.16 252.99 7.33 252.54 L6.25 254.58 C7.4 255.22 8.73 255.54 10.07 255.54 C14.03 255.54 17.4 252.54 17.91 248.72 L22.69 248.72 C23.33 248.72 23.84 248.21 23.84 247.57 L23.84 230.17 C23.84 229.59 23.33 229.02 22.69 229.02 Z" class="st18"/><text x="-18.77" y="263.64" class="st11">VC Request API</text></g><g id="shape45-97" transform="translate(131.468,-138.216)"><title>Dynamic connector.45</title><desc>② Create issuance or verification request</desc><path d="M0 256.13 C14.33 256.13 14.33 262.3 27.13 266.21 C49.19 272.95 109.3 272.95 204.28 272.95" class="st14"/><rect width="137.51" height="9.6" x="32.051" y="267.602" class="st19"/><text x="32.05" y="274.8" class="st17">② Create issuance or verification request</text></g><g id="group52-104" transform="translate(35.28,-39.6036)"><title>Server Farm</title><desc>local</desc><g id="shape53-105" transform="translate(0,-1.98618)"><title>Sheet.53</title><path d="M21.34 254.44 A1.178 1.16691 0 0 1 20.11 255.54 L1.23 255.54 A1.178 1.16691 0 0 1 0 254.44 L0 224.07 A1.178 1.16691 0 0 1 1.23 222.97 L20.11 222.97 A1.178 1.16691 0 0 1 21.34 224.07 L21.34 254.44 Z" class="st20"/></g><g id="shape54-109" transform="translate(3.13174,-18.0932)"><title>Sheet.54</title><path d="M0 253 A2.44834 2.4253 0 0 1 2.32 250.46 L12.95 250.46 A2.44834 2.4253 0 0 1 15.27 253 A2.44834 2.4253 0 0 1 12.95 255.54 L2.32 255.54 A2.44834 2.4253 0 0 1 0 253 ZM0 245.48 A2.44834 2.4253 0 0 1 2.32 242.94 L12.95 242.94 A2.44834 2.4253 0 0 1 15.27 245.48 A2.44834 2.4253 0 0 1 12.95 248.01 L2.32 248.01 A2.44834 2.4253 0 0 1 -0 245.48 Z" class="st21"/></g><g id="shape55-111" transform="translate(4.40414,-26.4587)"><title>Sheet.55</title><ellipse cx="1.716" cy="253.841" class="st2" rx="1.716" ry="1.7"/></g><g id="shape56-113" transform="translate(4.40414,-18.9348)"><title>Sheet.56</title><ellipse cx="1.716" cy="253.841" class="st2" rx="1.716" ry="1.7"/></g><g id="shape57-115" transform="translate(13.6024,0)"><title>Sheet.57</title><path d="M15.72 241.28 L9.21 238.06 L2.46 241.28 L0 246.05 L0 254.96 a0.586945 0.581421 -180 0 0 0.586945 0.579388 L17.84 255.54 a0.586945 0.581421 -180 0 0 0.586945 -0.579388 L18.42 246.05 L15.72 241.28 Z" class="st22"/></g><g id="shape58-119" transform="translate(11.3305,-6.912)"><title>Sheet.58</title><path d="M0.82 255.54 a0.898888 0.890428 0 0 1 -0.820903 -1.26042 L2.89 248.02 a0.900941 0.892461 0 0 1 0.391981 -0.406588 L11.2 243.4 a0.898888 0.890428 0 0 1 0.861948 0 L19.69 247.61 a0.890679 0.882296 0 0 1 0.365302 0.38016 L23.23 254.25 a0.897606 0.889158 0 0 1 -1.60486 0.796913 L18.58 249.03 L11.61 245.19 L4.4 249.03 L1.64 255.02 a0.898888 0.890428 0 0 1 -0.816798 0.522466 Z" class="st2"/></g><g id="shape59-121" transform="translate(20.8961,-8.57698)"><title>Sheet.59</title><path d="M0 254.96 a0.584907 0.579402 -180 0 0 0.584893 0.579388 L3.08 255.54 a0.584907 0.579402 -180 0 0 0.584893 -0.579388 L3.67 252.32 a0.584907 0.579402 -180 0 0 -0.584893 -0.579388 L0.58 251.74 a0.584907 0.579402 -180 0 0 -0.584893 0.579388 L0 254.96 Z" class="st23"/></g><g id="shape60-123" transform="translate(18.9259,-2.84217E-14)"><title>Sheet.60</title><path d="M3.8 252.37 L7.35 250.02 a0.580789 0.575322 -180 0 0 -0.328361 -0.0996141 L0.58 249.92 a0.584893 0.579388 -180 0 0 -0.328361 0.0996141 L3.8 252.37 ZM7.61 254.89 L7.61 250.57 L4.34 252.73 L7.61 254.89 ZM3.26 252.73 L0 250.57 L0 254.89 L3.26 252.73 ZM7.58 255.54 L7.61 255.54 L7.61 255.5 L7.58 255.54 ZM0 255.5 L0 255.54 L0.03 255.54 L0 255.5 ZM0.1 255.54 L7.5 255.54 L3.8 253.09 L0.1 255.54 Z" class="st23"/></g><g id="shape52-125"><text x="8.1" y="263.85" class="st11">local</text></g></g></g></svg>